Patient4_TMGait_0pt4_02_left_36_EMG.mot
version=1
nRows=13
nColumns=33
inDegrees=no
endheader
time	1LAddLong	2LGlutMax	3LGlutMed	4LIliopsoas	5LSemiMemb	6LBicFemLong	7LRecFem	8LVastMed	9LVastLat	10LGasMed	11LTibAnt	12lTibPost	13LPeroneusLong	14LSol	15LExtDigLong	16LFlexDigLong	17RAddLong	18RGlutMax	19RGlutMed	20RIliopsoas	21RSemiMemb	22RBicFemLong	23RRecFem	24RVastMed	25RVastLat	26RGasMed	27RTibAnt	28RTibPost	29RPeroneusLong	30RSol	31RExtDigLong	32RFlexDigLong
49.515	0.012817	0.1506	-0.030823	-0.006256	0.010376	-0.031281	-0.032196	0.007477	0.13062	-0.016785	0.0914	0.00061	-0.075226	-0.070496	0.043488	-0.008545	-0.019836	-0.015564	-0.094604	0.40482	0.047913	0.015259	-0.076599	0.050659	-0.057068	-0.00412	0.007172	-0.008087	-0.20752	-0.60196	-0.003967	0.000763
49.516	0.006866	0.13702	-0.046844	0.003357	0.001526	-0.021667	-0.028992	0.007019	0.11795	-0.022583	0.025482	0.002441	-0.030365	-0.032196	0.029602	-0.005188	0.00412	0.022583	-0.030975	0.21683	0.046997	0.002899	-0.017853	-0.001221	-0.057068	-0.003662	0.030212	0.000305	-0.6694	-0.098267	-0.00824	0.002136
49.517	0.013428	0.15579	-0.067444	0.002747	-0.004578	-0.007477	-0.033875	0.005798	0.1207	-0.030365	-0.03418	0.003967	0.019836	-0.010529	0.097656	-0.009155	0.010223	0.029297	-0.040436	0.13138	-0.00061	0.028076	-0.097351	-0.019989	-0.062561	-0.00351	0.058289	0.002747	-0.47134	0.5954	0.001068	0.001831
49.518	0.009308	0.16663	-0.079041	-0.003815	0.005493	-0.017242	-0.030365	0.008087	0.11292	-0.031433	0.11475	0.001678	-0.024872	-0.024261	0.089417	-0.010529	-0.003052	0.063019	-0.05127	0.099945	-0.00824	0.031586	-0.23651	-0.012207	-0.015869	0.002441	0.073853	-0.003967	-0.061646	0.46936	-0.001526	0.003967
49.519	0.011444	0.13641	-0.005646	0.001221	0.025024	0.008087	-0.026398	0.009003	0.10895	-0.044403	0.16769	0.00412	0.009003	-0.007935	0.041809	-0.001678	0.005188	0.13138	0.067291	0.056305	0	0.03067	-0.15854	0.024109	-0.011597	0.002136	0.071411	-0.000458	0.25024	0.2034	0.000305	-0.01236
49.52	0.00824	0.13596	0.04425	0.002136	-0.000916	0.019531	-0.047455	0.011749	0.12528	-0.040588	-0.008392	0.005341	0.049133	-0.020447	-0.21698	-0.015259	0.016174	0.12772	0.14847	0.033417	-0.001678	0.030212	-0.026245	-0.017395	-0.12177	0.003204	0.045776	-0.005035	0.66208	0.020142	-0.007477	0.002594
49.521	-0.007324	0.14938	0.066223	-0.001526	-0.017853	-0.002289	-0.050049	0.003357	0.12146	-0.031128	-0.014801	0.011749	0.002747	-0.054932	-0.063629	-0.003357	0.013428	0.079956	-0.013428	0.027161	0.023499	0.036316	0.097046	-0.037689	-0.1944	0.009613	0.008545	-0.004578	0.55145	-0.03952	-0.002747	-0.00412
49.522	-0.001831	0.13046	-0.00473	0.00473	-0.033875	0.014038	-0.040131	0.00885	0.11795	-0.023346	0.084229	0.005798	-0.016937	-0.061646	-0.24277	-0.003967	0.005188	0.11139	0.001526	-0.011292	0.005951	0.054321	0.040283	-0.018158	-0.2533	0.003662	0.039825	-0.003815	0.19653	-0.13718	-0.008545	0.006714
49.523	0.002594	0.092773	0.000458	0.010681	-0.020752	0.013885	-0.057983	0.009766	0.12863	-0.03891	0.024109	0.009308	-0.006256	-0.089569	-0.30914	-0.014496	0.003052	0.063019	-0.12436	-0.044708	0.043182	0.059662	-0.16785	-0.004272	-0.11704	-0.005188	0.053558	0.00473	-0.34943	-0.25513	-0.003204	-0.00885
49.524	0.007935	0.10559	-0.043488	0.002747	-0.005341	-0.04425	-0.028076	0.006866	0.11917	-0.033875	-0.090027	0.001678	0.021515	-0.10681	-0.17487	-0.003052	0.002594	0.12451	0.37308	-0.064697	0.036926	0.070648	-0.22781	0.12543	0.12497	0.020447	0.024872	0.005798	-0.61676	-0.46783	0.005188	-0.005798
49.525	0.010071	0.072021	-0.088501	-0.010681	0.019073	0.000305	-0.033722	0.013123	0.13001	-0.027466	-0.085449	0.000305	0.007019	-0.1236	0.1358	-0.007935	0.006561	0.075684	0.10193	-0.072327	0.017548	0.018311	-0.11429	0.034332	0.005035	0.00885	0.062408	0.002136	-0.48309	-0.55618	-0.005951	-0.006714
49.526	0.012512	0.097809	-0.089722	-0.010071	0.051575	0.028992	-0.023651	0.002594	0.13153	-0.00946	-0.15167	0.006866	-0.00946	-0.12558	-0.006256	-0.012665	-0.005035	0.087891	0.031128	-0.052185	0.019684	0.039978	-0.14984	-0.04364	-0.024414	0.029297	0.003357	-0.059509	-0.177	-0.40741	-0.00412	-0.00061
49.527	0.014191	0.11429	-0.061188	0.000305	0.021973	0.024567	-0.037231	0.007935	0.13855	-0.026855	-0.18051	0.008698	-0.011292	-0.092773	0.27847	0.001221	-0.002899	0.21378	-0.058594	-0.021057	-0.024109	0.041962	-0.12833	0.022736	0.095367	0.011749	0.008545	-0.14496	0.058746	0.26001	-0.003204	-0.005951
